<?xml version="1.0" standalone="no"?>
<!DOCTYPE svg PUBLIC "-//W3C//DTD SVG 1.1//EN" "http://www.w3.org/Graphics/SVG/1.1/DTD/svg11.dtd" >
<svg xmlns="http://www.w3.org/2000/svg" xmlns:xlink="http://www.w3.org/1999/xlink" version="1.1">
<metadata></metadata>
<defs>
<font id="mostraoneboldregular" horiz-adv-x="1603" >
<font-face units-per-em="2048" ascent="1638" descent="-410" />
<missing-glyph horiz-adv-x="532" />
<glyph horiz-adv-x="0" />
<glyph unicode="&#xd;" horiz-adv-x="532" />
<glyph unicode=" "  horiz-adv-x="532" />
<glyph unicode="&#x09;" horiz-adv-x="532" />
<glyph unicode="&#xa0;" horiz-adv-x="532" />
<glyph unicode="!" horiz-adv-x="524" d="M123 0v283h278v-283h-278zM123 1120v283h278v-283l-139 -653z" />
<glyph unicode="&#x22;" horiz-adv-x="923" d="M123 899v504h278v-178zM524 899v504h277v-178z" />
<glyph unicode="#" horiz-adv-x="1263" d="M41 291v278h223l66 265h-156v276h223l72 293h279l-72 -293h115l71 293h279l-72 -293h154v-276h-224l-65 -265h156v-278h-224l-71 -291h-279l72 291h-115l-72 -291h-278l72 291h-154zM543 569h112l66 265h-115z" />
<glyph unicode="$" horiz-adv-x="692" d="M82 143v246q20 -8 53 -8q80 0 138.5 44t58.5 105q0 55 -53 115q-49 53 -101 107q-53 74 -53 163q0 176 145 277l-28 211h237l-18 -137q55 8 117 8v-244q-76 0 -123 -33q-53 -37 -54 -98q0 -43 56 -94q80 -80 100 -107q53 -80 53 -186q0 -186 -157 -291l26 -221h-237 l20 147q-59 -10 -127 -10q-31 0 -53 6z" />
<glyph unicode="%" horiz-adv-x="1404" d="M41 1126q0 127 89 216.5t216 89.5t216 -89.5t89 -216.5t-89 -216t-216 -89t-216 89t-89 216zM256 1126q0 -37 26.5 -63.5t63.5 -26.5t63.5 26.5t26.5 63.5t-26.5 64t-63.5 27t-63.5 -27t-26.5 -64zM264 0l604 1403h277l-604 -1403h-277zM754 276q0 125 89 215.5t216 90.5 q125 0 215 -90.5t90 -215.5q0 -127 -90 -216t-215 -89q-127 0 -216 89.5t-89 215.5zM969 276q0 -37 26.5 -63.5t63.5 -26.5t63.5 26.5t26.5 63.5t-26.5 64t-63.5 27t-63.5 -27t-26.5 -64z" />
<glyph unicode="&#x26;" horiz-adv-x="1331" d="M72 457q0 164 98 294t256 175l-248 477h797v-279h-342l258 -495l78 135h327l-252 -434l173 -330h-314l-41 78q-133 -106 -305 -107q-201 0 -343 142.5t-142 343.5zM352 457q0 -84 60.5 -144.5t144.5 -60.5q109 0 170 90l-166 320h-8q-82 2 -141.5 -59.5t-59.5 -145.5z " />
<glyph unicode="'" horiz-adv-x="524" d="M123 899v504h278v-178z" />
<glyph unicode="(" horiz-adv-x="681" d="M72 700q0 254 114 480q113 217 310 362l151 -201q-150 -111 -236.5 -278.5t-86.5 -362.5q0 -193 88 -364q85 -164 235 -275l-151 -202q-197 147 -310.5 367t-113.5 474z" />
<glyph unicode=")" horiz-adv-x="681" d="M35 61q150 111 235 275q88 172 88 364q0 195 -87 363t-236 278l151 201q197 -145 310 -362q114 -226 114 -480t-113.5 -474t-310.5 -367z" />
<glyph unicode="*" horiz-adv-x="829" d="M41 995l213 56l-213 55l139 242l154 -158l-60 213h279l-59 -215l155 160l139 -242l-215 -55l213 -56l-139 -239l-153 157l59 -213h-279l60 211l-154 -155z" />
<glyph unicode="+" horiz-adv-x="1132" d="M41 575v252h399v400h254v-400h398v-252h-398v-399h-254v399h-399z" />
<glyph unicode="," horiz-adv-x="524" d="M123 -221v504h278v-179z" />
<glyph unicode="-" horiz-adv-x="829" d="M41 563v277h747v-277h-747z" />
<glyph unicode="." horiz-adv-x="524" d="M123 0v283h278v-283h-278z" />
<glyph unicode="/" horiz-adv-x="985" d="M35 -41l682 1583l233 -100l-684 -1581z" />
<glyph unicode="0" d="M72 700q0 303 214 517.5t517 214.5q301 0 515 -214.5t214 -517.5q0 -301 -214 -515t-515 -214q-303 0 -517 214t-214 515zM352 700q0 -184 132 -316t319 -132q184 0 316 132t132 316q0 186 -132 317.5t-316 131.5q-186 0 -318.5 -131t-132.5 -318z" />
<glyph unicode="1" horiz-adv-x="606" d="M164 0v1247l278 193v-1440h-278z" />
<glyph unicode="2" horiz-adv-x="802" d="M0 0l354 809q18 43 19 94q0 98 -71 170t-171 72v276q215 0 367.5 -151.5t152.5 -366.5q0 -111 -43 -205l-182 -419h315v-279h-741z" />
<glyph unicode="3" horiz-adv-x="798" d="M61 1124v279h697l-240 -543q158 -154 158 -373q0 -217 -151.5 -368.5t-366.5 -151.5v277q100 0 170.5 71.5t70.5 171.5q0 98 -70.5 170t-170.5 72l174 395h-271z" />
<glyph unicode="4" horiz-adv-x="1038" d="M-25 270l801 1223v-944h221v-279h-221v-270h-278v270h-523zM379 549h119v168z" />
<glyph unicode="5" horiz-adv-x="704" d="M102 -33v277q100 0 171 71.5t71 171.5q0 98 -70.5 170t-171.5 72v674h512v-279h-233v-198q113 -72 177.5 -189t64.5 -250q0 -217 -153 -368.5t-368 -151.5z" />
<glyph unicode="6" horiz-adv-x="952" d="M82 365q0 82 35 163l379 875h301l-279 -647q150 -14 251 -126.5t101 -264.5q0 -162 -115.5 -278t-279.5 -116q-162 0 -277.5 115t-115.5 279zM360 365q0 -47 34 -82t81 -35q49 0 83 35t34 82q0 49 -34 82.5t-83 33.5q-47 0 -81 -33.5t-34 -82.5z" />
<glyph unicode="7" horiz-adv-x="905" d="M0 0l485 1124h-409v279h829l-604 -1403h-301z" />
<glyph unicode="8" horiz-adv-x="1114" d="M82 446q0 213 160 355q-78 104 -78 237q0 162 114.5 278t278.5 116t278.5 -116t114.5 -278q0 -133 -78 -237q160 -142 160 -355q0 -197 -139 -336t-336 -139t-336 139.5t-139 335.5zM360 446q0 -82 57.5 -140t139.5 -58t139.5 58t57.5 140t-57.5 139.5t-139.5 57.5 t-139.5 -57.5t-57.5 -139.5zM440 1038q0 -49 34 -82.5t83 -33.5t83 33.5t34 82.5q0 47 -34 81t-83 34t-83 -34t-34 -81z" />
<glyph unicode="9" horiz-adv-x="952" d="M82 1038q0 162 115.5 278t277.5 116q164 0 279.5 -116t115.5 -278q0 -82 -36 -164l-377 -874h-301l278 645q-150 16 -251 129t-101 264zM360 1038q0 -49 34 -82.5t81 -33.5q49 0 83 33.5t34 82.5q0 47 -34 81t-83 34q-47 0 -81 -34t-34 -81z" />
<glyph unicode=":" horiz-adv-x="524" d="M123 0v283h278v-283h-278zM123 1120v283h278v-283h-278z" />
<glyph unicode=";" horiz-adv-x="524" d="M123 -221v504h278v-179zM123 1120v283h278v-283h-278z" />
<glyph unicode="&#x3c;" horiz-adv-x="827" d="M41 700l567 568l178 -178l-387 -390l387 -387l-178 -178z" />
<glyph unicode="=" horiz-adv-x="1132" d="M41 322v251h1051v-251h-1051zM41 827v254h1051v-254h-1051z" />
<glyph unicode="&#x3e;" horiz-adv-x="827" d="M41 313l387 387l-387 390l178 178l567 -568l-567 -565z" />
<glyph unicode="?" horiz-adv-x="679" d="M123 0v283h278v-283h-278zM123 481v279q82 0 139 57t57 139t-57 139.5t-139 57.5v279q197 0 336 -139.5t139 -336.5t-139.5 -336t-335.5 -139z" />
<glyph unicode="@" horiz-adv-x="1593" d="M72 700q0 301 222 516.5t527 215.5q311 0 502 -166q199 -174 199 -469q0 -219 -140 -365q-131 -137 -307 -137h-114v92q-72 -92 -189 -92q-156 0 -266.5 118.5t-110.5 286.5q0 170 110.5 289t266.5 119q117 0 189 -92v67h247v-614q176 98 176 328q0 238 -159 368 q-152 127 -404 127q-246 0 -428 -174t-182 -418t173 -416.5t419 -172.5v-140q-303 0 -517 214t-214 515zM645 700q0 -63 46 -109t112 -46q63 0 109 46t46 109q0 66 -46 112t-109 46q-66 0 -112 -46t-46 -112z" />
<glyph unicode="A" horiz-adv-x="1058" d="M-27 0l557 1446l555 -1446h-299l-43 117h-428l-43 -117h-299zM391 317h277l-138 363z" />
<glyph unicode="B" horiz-adv-x="1048" d="M164 0v1403h346q174 0 296 -123t122 -295q0 -168 -121 -266q160 -100 160 -297q0 -174 -124 -298t-298 -124h-381zM442 279h103q59 0 101 42t42 101t-42 102t-101 43h-103v-288zM442 844h68q59 0 100 41t41 100q0 57 -41 98t-100 41h-68v-280z" />
<glyph unicode="C" horiz-adv-x="1292" d="M72 700q0 303 214 517.5t517 214.5q301 0 516 -213l-197 -197q-133 133 -319 133q-188 0 -321.5 -133t-133.5 -322q0 -186 133 -319t322 -133q186 0 319 133l197 -197q-215 -213 -516 -213q-303 0 -517 214t-214 515z" />
<glyph unicode="D" horiz-adv-x="1292" d="M164 0v1403h354q291 0 497 -206t206 -497q0 -289 -206 -494.5t-497 -205.5h-354zM442 279h76q176 0 300 123.5t124 297.5q0 176 -124 300t-300 124h-76v-845z" />
<glyph unicode="E" horiz-adv-x="1013" d="M164 0v1403h747v-279h-469v-280h469v-277h-469v-288h469v-279h-747z" />
<glyph unicode="F" horiz-adv-x="1013" d="M164 0v1403h747v-279h-469v-280h469v-277h-469v-567h-278z" />
<glyph unicode="G" horiz-adv-x="1552" d="M72 700q0 303 214 517.5t517 214.5q301 0 516 -213l-197 -197q-133 133 -319 133q-188 0 -321.5 -133t-133.5 -322q0 -186 133 -319t322 -133q236 0 371 192h-371v260h729q0 -301 -214 -515t-515 -214q-303 0 -517 214t-214 515z" />
<glyph unicode="H" horiz-adv-x="1208" d="M164 0v1403h278v-559h326v559h276v-1403h-276v567h-326v-567h-278z" />
<glyph unicode="I" horiz-adv-x="606" d="M164 0v1403h278v-1403h-278z" />
<glyph unicode="J" horiz-adv-x="712" d="M20 -12v280q20 -10 54 -10q80 0 138 59.5t58 139.5v946h279v-946q0 -207 -125 -338q-129 -137 -350 -137q-31 0 -54 6z" />
<glyph unicode="K" horiz-adv-x="1165" d="M164 0v1403h278v-602l357 602h325l-387 -647l453 -756h-328l-289 481l-131 -221v-260h-278z" />
<glyph unicode="L" horiz-adv-x="952" d="M164 0v1403h278v-1124h469v-279h-747z" />
<glyph unicode="M" horiz-adv-x="1359" d="M164 0v1442l516 -606l516 606v-1442h-278v653l-238 -278l-238 278v-653h-278z" />
<glyph unicode="N" horiz-adv-x="1200" d="M164 0v1442l594 -694v655h278v-1442l-594 692v-653h-278z" />
<glyph unicode="O" d="M72 700q0 303 214 517.5t517 214.5q301 0 515 -214.5t214 -517.5q0 -301 -214 -515t-515 -214q-303 0 -517 214t-214 515zM352 700q0 -184 132 -316t319 -132q184 0 316 132t132 316q0 186 -132 317.5t-316 131.5q-186 0 -318.5 -131t-132.5 -318z" />
<glyph unicode="P" horiz-adv-x="1110" d="M164 0v1403h354q215 0 367.5 -152.5t152.5 -367.5t-152.5 -368t-367.5 -153h-76v-362h-278zM442 641h76q100 0 171 71t71 171t-71 170.5t-171 70.5h-76v-483z" />
<glyph unicode="Q" horiz-adv-x="1605" d="M72 700q0 303 214 517.5t517 214.5q301 0 515 -214t214 -518q0 -227 -129 -413l145 -137l-196 -197l-138 145q-186 -127 -411 -127q-303 0 -517 214t-214 515zM354 700q0 -184 131 -316t318 -132q184 0 316 132t132 316q0 186 -132 317.5t-316 131.5q-186 0 -317.5 -131 t-131.5 -318z" />
<glyph unicode="R" horiz-adv-x="1130" d="M164 0v1403h354q215 0 367.5 -152.5t152.5 -367.5q0 -143 -74.5 -267t-203.5 -192l370 -424h-370l-318 362v-362h-278zM442 641h76q100 0 171 71t71 171t-71 170.5t-171 70.5h-76v-483z" />
<glyph unicode="S" horiz-adv-x="692" d="M82 -12v280q23 -10 53 -10q80 0 138.5 59.5t58.5 139.5q0 82 -103.5 236.5t-103.5 273.5q0 207 124 330.5t329 123.5v-276q-76 0 -126.5 -50.5t-50.5 -127.5q0 -53 56 -136q86 -129 100 -155q53 -106 53 -219q0 -215 -131 -345t-344 -130q-29 0 -53 6z" />
<glyph unicode="T" horiz-adv-x="788" d="M20 1124v279h748v-279h-236v-1124h-276v1124h-236z" />
<glyph unicode="U" horiz-adv-x="1208" d="M164 412v991h278v-991q0 -68 47.5 -116t114.5 -48q68 0 116 48t48 116v991h276v-991q0 -182 -129 -311.5t-311 -129.5t-311 129t-129 312z" />
<glyph unicode="V" horiz-adv-x="1058" d="M-27 1403h299l258 -680l256 680h299l-555 -1446z" />
<glyph unicode="W" horiz-adv-x="1574" d="M-27 1403h299l258 -680l258 680l259 -680l256 680h299l-555 -1446l-261 674l-256 -674z" />
<glyph unicode="X" horiz-adv-x="1130" d="M-27 0l430 711l-417 692h325l254 -422l254 422h326l-416 -692l428 -711h-323l-269 442l-266 -442h-326z" />
<glyph unicode="Y" horiz-adv-x="1181" d="M-27 1403h328l291 -483l289 483h327l-479 -793v-610h-276v610z" />
<glyph unicode="Z" horiz-adv-x="1062" d="M41 0l537 1124h-494v279h938l-541 -1124h518v-279h-958z" />
<glyph unicode="[" horiz-adv-x="681" d="M164 -113v1629h477v-254h-223v-1121h223v-254h-477z" />
<glyph unicode="\" horiz-adv-x="985" d="M35 1442l231 100l684 -1583l-233 -98z" />
<glyph unicode="]" horiz-adv-x="681" d="M41 -113v254h223v1121h-223v254h477v-1629h-477z" />
<glyph unicode="^" horiz-adv-x="626" d="M35 1151l278 281l279 -281l-150 -150l-129 129l-129 -129z" />
<glyph unicode="_" horiz-adv-x="1132" d="M41 0v279h1051v-279h-1051z" />
<glyph unicode="`" horiz-adv-x="499" d="M35 1280l149 152l281 -281l-152 -150z" />
<glyph unicode="a" horiz-adv-x="1058" d="M-27 0l555 1446l555 -1446h-297l-45 117h-426l-45 -117h-297zM391 317h275l-138 363z" />
<glyph unicode="b" horiz-adv-x="1048" d="M164 0v1403h346q174 0 296 -123t122 -295q0 -168 -121 -266q160 -100 160 -297q0 -174 -124 -298t-298 -124h-381zM442 279h103q59 0 101 42t42 101t-42 102t-101 43h-103v-288zM442 844h68q59 0 100 41t41 100q0 57 -41 98t-100 41h-68v-280z" />
<glyph unicode="c" horiz-adv-x="1292" d="M72 700q0 303 214 517.5t517 214.5q301 0 516 -213l-197 -197q-133 133 -319 133q-188 0 -321.5 -133t-133.5 -322q0 -186 133 -319t322 -133q186 0 319 133l197 -197q-215 -213 -516 -213q-303 0 -517 214t-214 515z" />
<glyph unicode="d" horiz-adv-x="1292" d="M164 0v1403h354q291 0 497 -206t206 -497q0 -289 -206 -494.5t-497 -205.5h-354zM442 279h76q176 0 300 123.5t124 297.5q0 176 -124 300t-300 124h-76v-845z" />
<glyph unicode="e" horiz-adv-x="1013" d="M164 0v1403h747v-279h-469v-280h469v-277h-469v-288h469v-279h-747z" />
<glyph unicode="f" horiz-adv-x="1013" d="M164 0v1403h747v-279h-469v-280h469v-277h-469v-567h-278z" />
<glyph unicode="g" horiz-adv-x="1552" d="M72 700q0 303 214 517.5t517 214.5q301 0 516 -213l-197 -197q-133 133 -319 133q-188 0 -321.5 -133t-133.5 -322q0 -186 133 -319t322 -133q236 0 371 192h-371v260h729q0 -301 -214 -515t-515 -214q-303 0 -517 214t-214 515z" />
<glyph unicode="h" horiz-adv-x="1208" d="M164 0v1403h278v-559h326v559h276v-1403h-276v567h-326v-567h-278z" />
<glyph unicode="i" horiz-adv-x="606" d="M164 0v1403h278v-1403h-278z" />
<glyph unicode="j" horiz-adv-x="712" d="M20 -12v280q20 -10 54 -10q80 0 138 59.5t58 139.5v946h279v-946q0 -207 -125 -338q-129 -137 -350 -137q-31 0 -54 6z" />
<glyph unicode="k" horiz-adv-x="1165" d="M164 0v1403h278v-602l357 602h325l-387 -647l453 -756h-328l-289 481l-131 -221v-260h-278z" />
<glyph unicode="l" horiz-adv-x="952" d="M164 0v1403h278v-1124h469v-279h-747z" />
<glyph unicode="m" horiz-adv-x="1359" d="M164 0v1442l516 -606l516 606v-1442h-278v653l-238 -278l-238 278v-653h-278z" />
<glyph unicode="n" horiz-adv-x="1200" d="M164 0v1442l594 -694v655h278v-1442l-594 692v-653h-278z" />
<glyph unicode="o" d="M72 700q0 303 214 517.5t517 214.5q301 0 515 -214.5t214 -517.5q0 -301 -214 -515t-515 -214q-303 0 -517 214t-214 515zM352 700q0 -184 132 -316t319 -132q184 0 316 132t132 316q0 186 -132 317.5t-316 131.5q-186 0 -318.5 -131t-132.5 -318z" />
<glyph unicode="p" horiz-adv-x="1110" d="M164 0v1403h354q215 0 367.5 -152.5t152.5 -367.5t-152.5 -368t-367.5 -153h-76v-362h-278zM442 641h76q100 0 171 71t71 171t-71 170.5t-171 70.5h-76v-483z" />
<glyph unicode="q" horiz-adv-x="1605" d="M72 700q0 303 214 517.5t517 214.5q301 0 515 -214t214 -518q0 -227 -129 -413l145 -137l-196 -197l-138 145q-186 -127 -411 -127q-303 0 -517 214t-214 515zM354 700q0 -184 131 -316t318 -132q184 0 316 132t132 316q0 186 -132 317.5t-316 131.5q-186 0 -317.5 -131 t-131.5 -318z" />
<glyph unicode="r" horiz-adv-x="1130" d="M164 0v1403h354q215 0 367.5 -152.5t152.5 -367.5q0 -143 -74.5 -267t-203.5 -192l370 -424h-370l-318 362v-362h-278zM442 641h76q100 0 171 71t71 171t-71 170.5t-171 70.5h-76v-483z" />
<glyph unicode="s" horiz-adv-x="692" d="M82 -12v280q23 -10 53 -10q80 0 138.5 59.5t58.5 139.5q0 82 -103.5 236.5t-103.5 273.5q0 207 124 330.5t329 123.5v-276q-76 0 -126.5 -50.5t-50.5 -127.5q0 -53 56 -136q86 -129 100 -155q53 -106 53 -219q0 -215 -131 -345t-344 -130q-29 0 -53 6z" />
<glyph unicode="t" horiz-adv-x="788" d="M20 1124v279h748v-279h-236v-1124h-276v1124h-236z" />
<glyph unicode="u" horiz-adv-x="1208" d="M164 412v991h278v-991q0 -68 47.5 -116t114.5 -48q68 0 116 48t48 116v991h276v-991q0 -182 -129 -311.5t-311 -129.5t-311 129t-129 312z" />
<glyph unicode="v" horiz-adv-x="1058" d="M-27 1403h297l258 -680l258 680h297l-555 -1446z" />
<glyph unicode="w" horiz-adv-x="1574" d="M-27 1403h299l258 -680l258 680l259 -680l256 680h299l-555 -1446l-261 674l-256 -674z" />
<glyph unicode="x" horiz-adv-x="1130" d="M-27 0l430 711l-417 692h325l254 -422l254 422h326l-416 -692l428 -711h-323l-269 442l-266 -442h-326z" />
<glyph unicode="y" horiz-adv-x="1181" d="M-27 1403h328l291 -483l289 483h327l-479 -793v-610h-276v610z" />
<glyph unicode="z" horiz-adv-x="1062" d="M41 0l537 1124h-494v279h938l-541 -1124h518v-279h-958z" />
<glyph unicode="{" horiz-adv-x="679" d="M41 573v256h61q39 0 67 28t28 67v247q0 145 103 249t247 104h92v-256h-92q-39 0 -66.5 -28t-27.5 -69v-247q0 -152 -125 -224q125 -70 125 -223v-248q0 -39 27.5 -66.5t66.5 -27.5h92v-256h-92q-143 0 -246.5 102.5t-103.5 247.5v248q0 41 -28 68.5t-67 27.5h-61z" />
<glyph unicode="|" horiz-adv-x="581" d="M164 -113v1629h254v-1629h-254z" />
<glyph unicode="}" horiz-adv-x="679" d="M41 -121v256h90q41 0 68.5 27.5t27.5 66.5v248q0 154 125 223q-125 72 -125 224v247q0 41 -27.5 69t-68.5 28h-90v256h90q145 0 247.5 -103.5t102.5 -249.5v-247q0 -39 29 -67t68 -28h61v-256h-61q-41 0 -69 -27.5t-28 -68.5v-248q0 -145 -102.5 -247.5t-247.5 -102.5 h-90z" />
<glyph unicode="~" horiz-adv-x="724" d="M35 1202q0 98 58.5 154.5t148.5 56.5q63 0 130.5 -39t90.5 -39q66 0 63 68h156q8 -27 8 -64q0 -98 -58.5 -153.5t-148.5 -55.5q-63 0 -130.5 38t-90.5 38q-66 0 -63 -65h-158q-6 27 -6 61z" />
<glyph unicode="&#xa1;" horiz-adv-x="524" d="M123 0v283l139 651l139 -651v-283h-278zM123 1120v283h278v-283h-278z" />
<glyph unicode="&#xa2;" horiz-adv-x="1054" d="M72 700q0 201 128 355.5t324 191.5l-22 156h239l-20 -154q174 -29 299 -155l-191 -191q-84 84 -202 84q-117 0 -201 -84t-84 -203q0 -117 84 -200.5t201 -83.5q119 0 202 84l191 -193q-125 -125 -297 -153l18 -154h-239l22 156q-197 37 -324.5 191.5t-127.5 352.5z" />
<glyph unicode="&#xa3;" horiz-adv-x="888" d="M102 0v279h101q84 0 141 50t57 128q0 51 -16 106h-283v277h166q-16 63 -16 127q0 199 117 321q125 133 338 133v-276q-76 0 -126.5 -49t-50.5 -129q0 -63 13 -127h243v-277h-170q10 -53 11 -106q0 -94 -70 -178h229v-279h-684z" />
<glyph unicode="&#xa4;" horiz-adv-x="1486" d="M72 397v252h170q-2 27 -2 51q0 27 2 54h-170v252h235q88 193 267.5 309.5t396.5 116.5q303 0 516 -215l-195 -195q-133 133 -321 133q-201 0 -336 -149h401v-252h-516q-2 -27 -2 -54q0 -25 2 -51h516v-252h-401q135 -150 336 -149q188 0 321 133l195 -197 q-213 -213 -516 -213q-217 0 -396.5 117t-267.5 309h-235z" />
<glyph unicode="&#xa5;" horiz-adv-x="1232" d="M0 1403h326l290 -483l291 483h326l-348 -578h225v-254h-354v-102h354v-254h-354v-215h-279v215h-354v254h354v102h-354v254h225z" />
<glyph unicode="&#xa6;" horiz-adv-x="581" d="M164 -113v605h254v-605h-254zM164 911v605h254v-605h-254z" />
<glyph unicode="&#xa7;" horiz-adv-x="821" d="M82 739q0 207 176 308q-45 88 -45 184q0 152 109 274h305q-127 -86 -144 -229q-16 -143 95 -260q33 -37 71 -82q90 -129 90 -268q0 -212 -176 -312q45 -86 45 -180q0 -160 -110 -280h-305q147 98 147 266q0 125 -96 225q-35 41 -76 90q-86 131 -86 264zM287 739 q0 -74 53 -128t55 -58q23 -23 35 -41q107 41 107 150q0 76 -53.5 130t-57.5 58q-23 23 -33 39q-106 -39 -106 -150z" />
<glyph unicode="&#xa8;" horiz-adv-x="645" d="M35 1255q0 55 38 93t91 38t91 -38t38 -93q0 -53 -38 -91t-91 -38t-91 38t-38 91zM352 1255q0 55 38 93t91 38t91 -38t38 -93q0 -53 -37.5 -91t-91.5 -38q-53 0 -91 38t-38 91z" />
<glyph unicode="&#xa9;" d="M72 700q0 303 214 517.5t517 214.5q301 0 515 -214.5t214 -517.5q0 -301 -214 -515t-515 -214q-303 0 -517 214t-214 515zM195 700q0 -250 178 -428t430 -178q250 0 428 178t178 428q0 252 -178 430.5t-428 178.5q-252 0 -430 -178.5t-178 -430.5zM336 700q0 195 136 331 t331 136q193 0 330 -135l-193 -192q-57 57 -137 57q-82 0 -139.5 -57.5t-57.5 -139.5q0 -80 57.5 -138t139.5 -58q80 0 137 57l193 -190q-137 -137 -330 -138q-195 0 -331 137.5t-136 329.5z" />
<glyph unicode="&#xaa;" horiz-adv-x="890" d="M72 139v277h747v-277h-747zM72 647l372 811l375 -811h-239l-27 66h-215l-29 -66h-237zM385 825h121l-62 142z" />
<glyph unicode="&#xab;" horiz-adv-x="1083" d="M41 700l264 428h268l-264 -428l264 -428h-268zM512 700l262 428h268l-262 -428l262 -428h-268z" />
<glyph unicode="&#xac;" d="M72 700q0 303 214 517.5t517 214.5q301 0 515 -214.5t214 -517.5q0 -301 -214 -515t-515 -214q-303 0 -517 214t-214 515zM195 700q0 -250 178 -428t430 -178q250 0 428 178t178 428q0 252 -178 430.5t-428 178.5q-252 0 -430 -178.5t-178 -430.5zM561 250v903h262 q129 0 221.5 -92t92.5 -221t-92.5 -220.5t-221.5 -91.5h-32v-278h-230zM791 752h32q37 0 63.5 25.5t26.5 62.5t-26.5 63.5t-63.5 26.5h-32v-178z" />
<glyph unicode="&#xad;" horiz-adv-x="829" d="M41 563v277h747v-277h-747z" />
<glyph unicode="&#xae;" horiz-adv-x="894" d="M72 1061q0 156 109.5 265.5t264.5 109.5q156 0 266.5 -109.5t110.5 -265.5t-110.5 -266.5t-266.5 -110.5t-265 110.5t-109 266.5zM160 1061q0 -119 84 -203t202 -84q121 0 205 84t84 203t-84 203t-205 84q-119 0 -202.5 -84t-83.5 -203zM322 852v428h108q66 0 112 -47 t46 -113q0 -94 -86 -139l114 -129h-114l-96 111v-111h-84zM406 1047h24q29 0 51.5 22t22.5 51q0 31 -22.5 52.5t-51.5 21.5h-24v-147z" />
<glyph unicode="&#xaf;" horiz-adv-x="757" d="M35 1163v211h688v-211h-688z" />
<glyph unicode="&#xb0;" horiz-adv-x="569" d="M41 1188q0 100 71.5 172t172.5 72q100 0 171.5 -72t71.5 -172t-71.5 -172t-171.5 -72t-172 71.5t-72 172.5zM176 1188q0 -45 32 -77t77 -32t76.5 32t31.5 77t-31.5 76.5t-76.5 31.5t-77 -31.5t-32 -76.5z" />
<glyph unicode="&#xb4;" horiz-adv-x="499" d="M35 1151l278 281l152 -152l-281 -279z" />
<glyph unicode="&#xb6;" horiz-adv-x="841" d="M72 1098q0 125 89 215t216 90h301v-1516h-64v1452h-174v-1452h-63v906q-127 0 -216 89t-89 216z" />
<glyph unicode="&#xb7;" horiz-adv-x="524" d="M123 559v283h278v-283h-278z" />
<glyph unicode="&#xb8;" horiz-adv-x="348" d="M35 0h278v-178l-278 -201v379z" />
<glyph unicode="&#xba;" horiz-adv-x="962" d="M72 1040q0 170 119.5 290t289.5 120t290 -120t120 -290t-120 -289.5t-290 -119.5t-289.5 119.5t-119.5 289.5zM109 139v277h745v-277h-745zM293 1040q0 -78 55 -133t133 -55t133.5 55t55.5 133t-55.5 133.5t-133.5 55.5t-133 -55.5t-55 -133.5z" />
<glyph unicode="&#xbb;" horiz-adv-x="1083" d="M41 272l264 428l-264 428h268l264 -428l-264 -428h-268zM512 272l262 428l-262 428h268l262 -428l-262 -428h-268z" />
<glyph unicode="&#xbe;" horiz-adv-x="1716" d="M41 922h625l192 594l193 -594h624l-504 -367l193 -594l-506 367l-506 -367l195 594zM578 748l174 -125l-68 -205l174 127l174 -127l-67 205l174 125h-215l-66 204l-65 -204h-215z" />
<glyph unicode="&#xbf;" horiz-adv-x="679" d="M82 446q0 197 139 336.5t336 139.5v-279q-82 0 -139.5 -57.5t-57.5 -139.5t57.5 -140t139.5 -58v-277q-197 0 -336 139.5t-139 335.5zM279 1120v283h278v-283h-278z" />
<glyph unicode="&#xc0;" horiz-adv-x="1058" d="M-27 0l557 1446l555 -1446h-299l-43 117h-428l-43 -117h-299zM322 1702l151 149l279 -278l-152 -152zM391 317h277l-138 363z" />
<glyph unicode="&#xc1;" horiz-adv-x="1058" d="M-27 0l557 1446l555 -1446h-299l-43 117h-428l-43 -117h-299zM293 1575l278 278l150 -151l-279 -279zM391 317h277l-138 363z" />
<glyph unicode="&#xc2;" horiz-adv-x="1058" d="M-27 0l557 1446l555 -1446h-299l-43 117h-428l-43 -117h-299zM240 1573l280 278l279 -278l-150 -152l-129 129l-129 -129zM391 317h277l-138 363z" />
<glyph unicode="&#xc3;" horiz-adv-x="1058" d="M-27 0l557 1446l555 -1446h-299l-43 117h-428l-43 -117h-299zM201 1546q0 98 58 153.5t149 55.5q63 0 130.5 -38t90.5 -38q66 0 63 66h156q6 -25 6 -62q0 -98 -58.5 -153t-148.5 -55q-63 0 -130.5 37.5t-88.5 37.5q-68 0 -63 -65h-158q-6 25 -6 61zM391 317h277l-138 363 z" />
<glyph unicode="&#xc4;" horiz-adv-x="1058" d="M-27 0l557 1446l555 -1446h-299l-43 117h-428l-43 -117h-299zM240 1653q0 55 37.5 93t91.5 38q53 0 91 -38t38 -93q0 -53 -38 -91t-91 -38t-91 37.5t-38 91.5zM391 317h277l-138 363zM557 1653q0 55 38 93t91 38t91 -38t38 -93q0 -53 -38 -91t-91 -38t-91 37.5t-38 91.5z " />
<glyph unicode="&#xc5;" horiz-adv-x="1058" d="M-27 0l490 1274q-59 20 -98 73.5t-39 118.5q0 84 59 143.5t145 59.5q84 0 143.5 -59.5t59.5 -143.5q0 -66 -39 -119t-98 -73l489 -1274h-299l-43 117h-428l-43 -117h-299zM391 317h277l-138 363zM438 1466q0 -37 27 -63.5t65 -26.5q37 0 64 26.5t27 63.5t-27 63.5 t-64 26.5q-39 0 -65.5 -26.5t-26.5 -63.5z" />
<glyph unicode="&#xc6;" horiz-adv-x="1615" d="M-27 0l783 1403h757v-279h-469v-280h469v-277h-469v-288h469v-279h-747v117h-410l-65 -117h-318zM467 317h299v541z" />
<glyph unicode="&#xc7;" horiz-adv-x="1292" d="M72 700q0 303 214 517.5t517 214.5q301 0 516 -215l-197 -195q-133 133 -319 133q-188 0 -321.5 -133t-133.5 -322q0 -186 133 -319t322 -133q186 0 319 133l197 -197q-160 -158 -379 -200v-162l-276 -201v363q-256 49 -424 250.5t-168 465.5z" />
<glyph unicode="&#xc8;" horiz-adv-x="1013" d="M164 0v1403h747v-279h-469v-280h469v-277h-469v-288h469v-279h-747zM313 1702l150 151l280 -280l-151 -150z" />
<glyph unicode="&#xc9;" horiz-adv-x="1013" d="M164 0v1403h747v-279h-469v-280h469v-277h-469v-288h469v-279h-747zM313 1575l279 278l151 -151l-280 -279z" />
<glyph unicode="&#xca;" horiz-adv-x="1013" d="M164 0v1403h747v-279h-469v-280h469v-277h-469v-288h469v-279h-747zM262 1573l279 278l278 -278l-149 -152l-129 129l-129 -129z" />
<glyph unicode="&#xcb;" horiz-adv-x="1013" d="M164 0v1403h747v-279h-469v-280h469v-277h-469v-288h469v-279h-747zM240 1653q0 55 37.5 93t91.5 38q53 0 91 -38t38 -93q0 -53 -38 -91t-91 -38t-91 37.5t-38 91.5zM557 1653q0 55 38 93t91 38t91 -38t38 -93q0 -53 -38 -91t-91 -38t-91 37.5t-38 91.5z" />
<glyph unicode="&#xcc;" horiz-adv-x="606" d="M76 1702l149 151l281 -280l-152 -150zM164 0v1403h278v-1403h-278z" />
<glyph unicode="&#xcd;" horiz-adv-x="606" d="M80 1575l280 278l150 -151l-279 -279zM164 0v1403h278v-1403h-278z" />
<glyph unicode="&#xce;" horiz-adv-x="606" d="M16 1573l279 278l278 -278l-149 -152l-129 129l-129 -129zM164 0v1403h278v-1403h-278z" />
<glyph unicode="&#xcf;" horiz-adv-x="606" d="M14 1653q0 55 38 93t91 38t91 -38t38 -93q0 -53 -37.5 -91t-91.5 -38q-53 0 -91 37.5t-38 91.5zM164 0v1403h278v-1403h-278zM332 1653q0 55 38 93t91 38t91 -38t38 -93q0 -53 -38 -91t-91 -38t-91 37.5t-38 91.5z" />
<glyph unicode="&#xd0;" horiz-adv-x="1292" d="M47 598v211h117v594h354q291 0 497 -206t206 -497q0 -289 -206 -494.5t-497 -205.5h-354v598h-117zM442 279h76q176 0 300 123.5t124 297.5q0 176 -124 300t-300 124h-76v-315h121v-211h-121v-319z" />
<glyph unicode="&#xd1;" horiz-adv-x="1200" d="M164 0v1442l594 -694v655h278v-1442l-594 692v-653h-278zM276 1546q0 98 58.5 153.5t148.5 55.5q63 0 131 -38t91 -38q66 0 63 66h156q8 -25 8 -62q0 -98 -58.5 -153t-148.5 -55q-63 0 -131 37.5t-90 37.5q-68 0 -64 -65h-157q-6 25 -7 61z" />
<glyph unicode="&#xd2;" d="M72 700q0 303 214 517.5t517 214.5q301 0 515 -214.5t214 -517.5q0 -301 -214 -515t-515 -214q-303 0 -517 214t-214 515zM352 700q0 -184 132 -316t319 -132q184 0 316 132t132 316q0 186 -132 317.5t-316 131.5q-186 0 -318.5 -131t-132.5 -318zM580 1702l149 151 l281 -280l-152 -150z" />
<glyph unicode="&#xd3;" d="M72 700q0 303 214 517.5t517 214.5q301 0 515 -214.5t214 -517.5q0 -301 -214 -515t-515 -214q-303 0 -517 214t-214 515zM352 700q0 -184 132 -316t319 -132q184 0 316 132t132 316q0 186 -132 317.5t-316 131.5q-186 0 -318.5 -131t-132.5 -318zM582 1575l278 278 l152 -151l-281 -279z" />
<glyph unicode="&#xd4;" d="M72 700q0 303 214 517.5t517 214.5q301 0 515 -214.5t214 -517.5q0 -301 -214 -515t-515 -214q-303 0 -517 214t-214 515zM352 700q0 -184 132 -316t319 -132q184 0 316 132t132 316q0 186 -132 317.5t-316 131.5q-186 0 -318.5 -131t-132.5 -318zM522 1573l281 278 l278 -278l-149 -152l-129 129l-129 -129z" />
<glyph unicode="&#xd5;" d="M72 700q0 303 214 517.5t517 214.5q301 0 515 -214.5t214 -517.5q0 -301 -214 -515t-515 -214q-303 0 -517 214t-214 515zM352 700q0 -184 132 -316t319 -132q184 0 316 132t132 316q0 186 -132 317.5t-316 131.5q-186 0 -318.5 -131t-132.5 -318zM451 1546 q0 98 58 153.5t148 55.5q63 0 131 -38t89 -38q68 0 63 66h158q6 -25 6 -62q0 -98 -58.5 -153t-148.5 -55q-63 0 -131 37.5t-90 37.5q-66 0 -62 -65h-157q-6 25 -6 61z" />
<glyph unicode="&#xd6;" d="M72 700q0 303 214 517.5t517 214.5q301 0 515 -214.5t214 -517.5q0 -301 -214 -515t-515 -214q-303 0 -517 214t-214 515zM352 700q0 -184 132 -316t319 -132q184 0 316 132t132 316q0 186 -132 317.5t-316 131.5q-186 0 -318.5 -131t-132.5 -318zM522 1653q0 55 38 93 t91 38t91 -38t38 -93q0 -53 -37.5 -91t-91.5 -38q-53 0 -91 37.5t-38 91.5zM840 1653q0 55 37.5 93t91.5 38q53 0 91 -38t38 -93q0 -53 -38 -91t-91 -38t-91 37.5t-38 91.5z" />
<glyph unicode="&#xd7;" horiz-adv-x="1132" d="M104 420l283 280l-283 283l181 180l282 -282l283 282l178 -180l-283 -283l283 -280l-178 -180l-283 282l-282 -282z" />
<glyph unicode="&#xd8;" d="M72 700q0 303 214 517.5t517 214.5q223 0 407 -125l105 104l196 -197l-104 -104q125 -185 125 -410q0 -301 -214 -515t-515 -214q-225 0 -410 125l-104 -104l-197 196l105 105q-125 184 -125 407zM352 700q0 -106 49 -202l605 604q-96 47 -203 47q-186 0 -318.5 -131 t-132.5 -318zM598 301q96 -49 205 -49q184 0 316 132t132 316q0 109 -49 205z" />
<glyph unicode="&#xd9;" horiz-adv-x="1208" d="M164 412v991h278v-991q0 -68 47.5 -116t114.5 -48q68 0 116 48t48 116v991h276v-991q0 -182 -129 -311.5t-311 -129.5t-311 129t-129 312zM391 1702l150 151l280 -280l-151 -150z" />
<glyph unicode="&#xda;" horiz-adv-x="1208" d="M164 412v991h278v-991q0 -68 47.5 -116t114.5 -48q68 0 116 48t48 116v991h276v-991q0 -182 -129 -311.5t-311 -129.5t-311 129t-129 312zM391 1575l281 278l149 -151l-278 -279z" />
<glyph unicode="&#xdb;" horiz-adv-x="1208" d="M164 412v991h278v-991q0 -68 47.5 -116t114.5 -48q68 0 116 48t48 116v991h276v-991q0 -182 -129 -311.5t-311 -129.5t-311 129t-129 312zM334 1573l278 278l281 -278l-152 -152l-129 129l-129 -129z" />
<glyph unicode="&#xdc;" horiz-adv-x="1208" d="M164 412v991h278v-991q0 -68 47.5 -116t114.5 -48q68 0 116 48t48 116v991h276v-991q0 -182 -129 -311.5t-311 -129.5t-311 129t-129 312zM313 1653q0 55 38 93t91 38t91 -38t38 -93q0 -53 -37.5 -91t-91.5 -38q-53 0 -91 37.5t-38 91.5zM631 1653q0 55 38 93t91 38 t91 -38t38 -93q0 -53 -38 -91t-91 -38t-91 37.5t-38 91.5z" />
<glyph unicode="&#xdd;" horiz-adv-x="1181" d="M-27 1403h328l291 -483l289 483h327l-479 -793v-610h-276v610zM375 1575l278 278l150 -151l-279 -279z" />
<glyph unicode="&#xde;" horiz-adv-x="1110" d="M164 0v1403h278v-186h76q215 0 367.5 -152t152.5 -367t-152.5 -367.5t-367.5 -152.5h-76v-178h-278zM442 457h76q100 0 171 70.5t71 170.5q0 98 -71 170t-171 72h-76v-483z" />
<glyph unicode="&#xdf;" horiz-adv-x="1384" d="M82 -12v280q23 -10 53 -10q80 0 138.5 59.5t58.5 139.5q0 82 -103.5 236.5t-103.5 273.5q0 207 124 330.5t329 123.5v-276q-76 0 -126.5 -50.5t-50.5 -127.5q0 -53 56 -136q86 -129 100 -155q53 -106 53 -219q0 -215 -131 -345t-344 -130q-29 0 -53 6zM774 -12v280 q23 -10 53 -10q80 0 138.5 59.5t58.5 139.5q0 82 -103.5 236.5t-103.5 273.5q0 207 124 330.5t329 123.5v-276q-76 0 -126 -50.5t-50 -127.5q0 -53 55 -136q86 -129 98 -155q56 -106 56 -219q0 -215 -131.5 -345t-344.5 -130q-29 0 -53 6z" />
<glyph unicode="&#xe0;" horiz-adv-x="1058" d="M-27 0l555 1446l555 -1446h-297l-45 117h-426l-45 -117h-297zM309 1702l150 151l280 -280l-151 -150zM391 317h275l-138 363z" />
<glyph unicode="&#xe1;" horiz-adv-x="1058" d="M-27 0l555 1446l555 -1446h-297l-45 117h-426l-45 -117h-297zM293 1575l278 278l150 -151l-279 -279zM391 317h275l-138 363z" />
<glyph unicode="&#xe2;" horiz-adv-x="1058" d="M-27 0l555 1446l555 -1446h-297l-45 117h-426l-45 -117h-297zM240 1573l280 278l279 -278l-150 -152l-129 129l-129 -129zM391 317h275l-138 363z" />
<glyph unicode="&#xe3;" horiz-adv-x="1058" d="M-27 0l557 1446l555 -1446h-299l-43 117h-428l-43 -117h-299zM201 1546q0 98 58 153.5t149 55.5q63 0 130.5 -38t90.5 -38q66 0 63 66h156q6 -25 6 -62q0 -98 -58.5 -153t-148.5 -55q-63 0 -130.5 37.5t-88.5 37.5q-68 0 -63 -65h-158q-6 25 -6 61zM391 317h277l-138 363 z" />
<glyph unicode="&#xe4;" horiz-adv-x="1058" d="M-27 0l555 1446l555 -1446h-297l-45 117h-426l-45 -117h-297zM240 1653q0 55 37.5 93t91.5 38q53 0 91 -38t38 -93q0 -53 -38 -91t-91 -38t-91 37.5t-38 91.5zM391 317h275l-138 363zM557 1653q0 55 38 93t91 38t91 -38t38 -93q0 -53 -38 -91t-91 -38t-91 37.5t-38 91.5z " />
<glyph unicode="&#xe5;" horiz-adv-x="1058" d="M-27 0l490 1274q-59 20 -98 73.5t-39 118.5q0 84 60 143.5t144 59.5t143.5 -59.5t59.5 -143.5q0 -66 -39 -119t-98 -73l489 -1274h-299l-43 117h-428l-43 -117h-299zM391 317h277l-138 363zM438 1466q0 -37 27 -63.5t65 -26.5q37 0 64 26.5t27 63.5t-27 63.5t-64 26.5 q-39 0 -65.5 -26.5t-26.5 -63.5z" />
<glyph unicode="&#xe6;" horiz-adv-x="1615" d="M-27 0l783 1403h757v-279h-469v-280h469v-277h-469v-288h469v-279h-747v117h-410l-65 -117h-318zM467 317h299v541z" />
<glyph unicode="&#xe7;" horiz-adv-x="1292" d="M72 700q0 303 214 517.5t517 214.5q301 0 516 -215l-197 -195q-133 133 -319 133q-188 0 -321.5 -133t-133.5 -322q0 -186 133 -319t322 -133q186 0 319 133l197 -197q-160 -158 -379 -200v-162l-276 -201v363q-256 49 -424 250.5t-168 465.5z" />
<glyph unicode="&#xe8;" horiz-adv-x="1013" d="M164 0v1403h747v-279h-469v-280h469v-277h-469v-288h469v-279h-747zM313 1702l150 151l280 -280l-151 -150z" />
<glyph unicode="&#xe9;" horiz-adv-x="1013" d="M164 0v1403h747v-279h-469v-280h469v-277h-469v-288h469v-279h-747zM313 1575l279 278l151 -151l-280 -279z" />
<glyph unicode="&#xea;" horiz-adv-x="1013" d="M164 0v1403h747v-279h-469v-280h469v-277h-469v-288h469v-279h-747zM221 1573l279 278l278 -278l-149 -152l-129 129l-129 -129z" />
<glyph unicode="&#xeb;" horiz-adv-x="1013" d="M164 0v1403h747v-279h-469v-280h469v-277h-469v-288h469v-279h-747zM240 1653q0 55 37.5 93t91.5 38q53 0 91 -38t38 -93q0 -53 -38 -91t-91 -38t-91 37.5t-38 91.5zM557 1653q0 55 38 93t91 38t91 -38t38 -93q0 -53 -38 -91t-91 -38t-91 37.5t-38 91.5z" />
<glyph unicode="&#xec;" horiz-adv-x="606" d="M76 1702l149 151l281 -280l-152 -150zM164 0v1403h278v-1403h-278z" />
<glyph unicode="&#xed;" horiz-adv-x="606" d="M100 1575l281 278l149 -151l-278 -279zM164 0v1403h278v-1403h-278z" />
<glyph unicode="&#xee;" horiz-adv-x="606" d="M16 1573l279 278l278 -278l-149 -152l-129 129l-129 -129zM164 0v1403h278v-1403h-278z" />
<glyph unicode="&#xef;" horiz-adv-x="606" d="M14 1632q0 55 38 93t91 38t91 -38t38 -93q0 -53 -37.5 -91t-91.5 -38q-53 0 -91 38t-38 91zM164 0v1403h278v-1403h-278zM332 1632q0 55 38 93t91 38t91 -38t38 -93q0 -53 -38 -91t-91 -38t-91 38t-38 91z" />
<glyph unicode="&#xf0;" horiz-adv-x="1292" d="M47 598v211h117v594h354q291 0 497 -206t206 -497q0 -289 -206 -494.5t-497 -205.5h-354v598h-117zM442 279h76q176 0 300 123.5t124 297.5q0 176 -124 300t-300 124h-76v-315h121v-211h-121v-319z" />
<glyph unicode="&#xf1;" horiz-adv-x="1200" d="M164 0v1442l594 -694v655h278v-1442l-594 692v-653h-278zM276 1546q0 98 58.5 153.5t148.5 55.5q63 0 131 -38t91 -38q66 0 63 66h156q8 -25 8 -62q0 -98 -58.5 -153t-148.5 -55q-63 0 -131 37.5t-90 37.5q-68 0 -64 -65h-157q-6 25 -7 61z" />
<glyph unicode="&#xf2;" d="M72 700q0 303 214 517.5t517 214.5q301 0 515 -214.5t214 -517.5q0 -301 -214 -515t-515 -214q-303 0 -517 214t-214 515zM352 700q0 -184 132 -316t319 -132q184 0 316 132t132 316q0 186 -132 317.5t-316 131.5q-186 0 -318.5 -131t-132.5 -318zM580 1702l149 151 l281 -280l-152 -150z" />
<glyph unicode="&#xf3;" d="M72 700q0 303 214 517.5t517 214.5q301 0 515 -214.5t214 -517.5q0 -301 -214 -515t-515 -214q-303 0 -517 214t-214 515zM352 700q0 -184 132 -316t319 -132q184 0 316 132t132 316q0 186 -132 317.5t-316 131.5q-186 0 -318.5 -131t-132.5 -318zM582 1575l278 278 l152 -151l-281 -279z" />
<glyph unicode="&#xf4;" d="M72 700q0 303 214 517.5t517 214.5q301 0 515 -214.5t214 -517.5q0 -301 -214 -515t-515 -214q-303 0 -517 214t-214 515zM352 700q0 -184 132 -316t319 -132q184 0 316 132t132 316q0 186 -132 317.5t-316 131.5q-186 0 -318.5 -131t-132.5 -318zM522 1573l281 278 l278 -278l-149 -152l-129 129l-129 -129z" />
<glyph unicode="&#xf5;" d="M72 700q0 303 214 517.5t517 214.5q301 0 515 -214.5t214 -517.5q0 -301 -214 -515t-515 -214q-303 0 -517 214t-214 515zM352 700q0 -184 132 -316t319 -132q184 0 316 132t132 316q0 186 -132 317.5t-316 131.5q-186 0 -318.5 -131t-132.5 -318zM451 1546 q0 98 58 153.5t148 55.5q63 0 131 -38t89 -38q68 0 63 66h158q6 -25 6 -62q0 -98 -58.5 -153t-148.5 -55q-63 0 -131 37.5t-90 37.5q-66 0 -62 -65h-157q-6 25 -6 61z" />
<glyph unicode="&#xf6;" d="M72 700q0 303 214 517.5t517 214.5q301 0 515 -214.5t214 -517.5q0 -301 -214 -515t-515 -214q-303 0 -517 214t-214 515zM352 700q0 -184 132 -316t319 -132q184 0 316 132t132 316q0 186 -132 317.5t-316 131.5q-186 0 -318.5 -131t-132.5 -318zM522 1653q0 55 38 93 t91 38t91 -38t38 -93q0 -53 -37.5 -91t-91.5 -38q-53 0 -91 37.5t-38 91.5zM840 1653q0 55 37.5 93t91.5 38q53 0 91 -38t38 -93q0 -53 -38 -91t-91 -38t-91 37.5t-38 91.5z" />
<glyph unicode="&#xf8;" d="M72 700q0 303 214 517.5t517 214.5q223 0 407 -125l105 104l196 -197l-104 -104q125 -185 125 -410q0 -301 -214 -515t-515 -214q-225 0 -410 125l-104 -104l-197 196l105 105q-125 184 -125 407zM352 700q0 -106 49 -202l605 604q-96 47 -203 47q-186 0 -318.5 -131 t-132.5 -318zM598 301q96 -49 205 -49q184 0 316 132t132 316q0 109 -49 205z" />
<glyph unicode="&#xf9;" horiz-adv-x="1208" d="M164 412v991h278v-991q0 -68 47.5 -116t114.5 -48q68 0 116 48t48 116v991h276v-991q0 -182 -129 -311.5t-311 -129.5t-311 129t-129 312zM391 1702l150 151l280 -280l-151 -150z" />
<glyph unicode="&#xfa;" horiz-adv-x="1208" d="M164 412v991h278v-991q0 -68 47.5 -116t114.5 -48q68 0 116 48t48 116v991h276v-991q0 -182 -129 -311.5t-311 -129.5t-311 129t-129 312zM391 1575l281 278l149 -151l-278 -279z" />
<glyph unicode="&#xfb;" horiz-adv-x="1208" d="M164 412v991h278v-991q0 -68 47.5 -116t114.5 -48q68 0 116 48t48 116v991h276v-991q0 -182 -129 -311.5t-311 -129.5t-311 129t-129 312zM334 1573l278 278l281 -278l-152 -152l-129 129l-129 -129z" />
<glyph unicode="&#xfc;" horiz-adv-x="1208" d="M164 412v991h278v-991q0 -68 47.5 -116t114.5 -48q68 0 116 48t48 116v991h276v-991q0 -182 -129 -311.5t-311 -129.5t-311 129t-129 312zM313 1653q0 55 38 93t91 38t91 -38t38 -93q0 -53 -37.5 -91t-91.5 -38q-53 0 -91 37.5t-38 91.5zM631 1653q0 55 38 93t91 38 t91 -38t38 -93q0 -53 -38 -91t-91 -38t-91 37.5t-38 91.5z" />
<glyph unicode="&#xfd;" horiz-adv-x="1181" d="M-27 1403h328l291 -483l289 483h327l-479 -793v-610h-276v610zM375 1575l278 278l150 -151l-279 -279z" />
<glyph unicode="&#xfe;" horiz-adv-x="1110" d="M164 0v1403h278v-186h76q215 0 367.5 -152t152.5 -367t-152.5 -367.5t-367.5 -152.5h-76v-178h-278zM442 457h76q100 0 171 70.5t71 170.5q0 98 -71 170t-171 72h-76v-483z" />
<glyph unicode="&#xff;" horiz-adv-x="1181" d="M-27 1403h328l291 -483l289 483h327l-479 -793v-610h-276v610zM315 1653q0 55 38 93t91 38t91 -38t38 -93q0 -53 -37.5 -91t-91.5 -38q-53 0 -91 37.5t-38 91.5zM633 1653q0 55 37 93t92 38q53 0 91 -38t38 -93q0 -53 -38 -91t-91 -38q-55 0 -92 37.5t-37 91.5z" />
<glyph unicode="&#x152;" horiz-adv-x="2103" d="M72 700q0 303 214 517.5t517 214.5q287 0 452 -207v178h746v-279h-469v-280h469v-277h-469v-288h469v-279h-746v178q-166 -207 -452 -207q-303 0 -517 214t-214 515zM352 700q0 -184 132 -316t319 -132q184 0 316 132t132 316q0 186 -132 317.5t-316 131.5 q-186 0 -318.5 -131t-132.5 -318z" />
<glyph unicode="&#x153;" horiz-adv-x="2103" d="M72 700q0 303 214 517.5t517 214.5q287 0 452 -207v178h746v-279h-469v-280h469v-277h-469v-288h469v-279h-746v178q-166 -207 -452 -207q-303 0 -517 214t-214 515zM352 700q0 -184 132 -316t319 -132q184 0 316 132t132 316q0 186 -132 317.5t-316 131.5 q-186 0 -318.5 -131t-132.5 -318z" />
<glyph unicode="&#x178;" horiz-adv-x="1181" d="M-27 1403h328l291 -483l289 483h327l-479 -793v-610h-276v610zM315 1653q0 55 38 93t91 38t91 -38t38 -93q0 -53 -37.5 -91t-91.5 -38q-53 0 -91 37.5t-38 91.5zM633 1653q0 55 37 93t92 38q53 0 91 -38t38 -93q0 -53 -38 -91t-91 -38q-55 0 -92 37.5t-37 91.5z" />
<glyph unicode="&#x2c6;" horiz-adv-x="626" d="M35 1151l278 281l279 -281l-150 -150l-129 129l-129 -129z" />
<glyph unicode="&#x2dc;" horiz-adv-x="724" d="M35 1202q0 98 58.5 154.5t148.5 56.5q63 0 130.5 -39t90.5 -39q66 0 63 68h156q8 -27 8 -64q0 -98 -58.5 -153.5t-148.5 -55.5q-63 0 -130.5 38t-90.5 38q-66 0 -63 -65h-158q-6 27 -6 61z" />
<glyph unicode="&#x2000;" horiz-adv-x="926" />
<glyph unicode="&#x2001;" horiz-adv-x="1853" />
<glyph unicode="&#x2002;" horiz-adv-x="926" />
<glyph unicode="&#x2003;" horiz-adv-x="1853" />
<glyph unicode="&#x2004;" horiz-adv-x="617" />
<glyph unicode="&#x2005;" horiz-adv-x="463" />
<glyph unicode="&#x2006;" horiz-adv-x="308" />
<glyph unicode="&#x2007;" horiz-adv-x="308" />
<glyph unicode="&#x2008;" horiz-adv-x="231" />
<glyph unicode="&#x2009;" horiz-adv-x="370" />
<glyph unicode="&#x200a;" horiz-adv-x="102" />
<glyph unicode="&#x2010;" horiz-adv-x="829" d="M41 563v277h747v-277h-747z" />
<glyph unicode="&#x2011;" horiz-adv-x="829" d="M41 563v277h747v-277h-747z" />
<glyph unicode="&#x2012;" horiz-adv-x="829" d="M41 563v277h747v-277h-747z" />
<glyph unicode="&#x2013;" horiz-adv-x="1132" d="M41 563v277h1051v-277h-1051z" />
<glyph unicode="&#x2014;" horiz-adv-x="1574" d="M41 563v277h1493v-277h-1493z" />
<glyph unicode="&#x2018;" horiz-adv-x="524" d="M123 1225v178h278v-504z" />
<glyph unicode="&#x2019;" horiz-adv-x="524" d="M123 899v504h278v-178z" />
<glyph unicode="&#x201a;" horiz-adv-x="524" d="M123 -221v504h278v-179z" />
<glyph unicode="&#x201c;" horiz-adv-x="923" d="M123 1225v178h278v-504zM524 1225v178h277v-504z" />
<glyph unicode="&#x201d;" horiz-adv-x="923" d="M123 899v504h278v-178zM524 899v504h277v-178z" />
<glyph unicode="&#x201e;" horiz-adv-x="923" d="M123 -221v504h278v-179zM524 -221v504h277v-179z" />
<glyph unicode="&#x2022;" horiz-adv-x="776" d="M72 700q0 131 93 224.5t224 93.5t223.5 -93.5t92.5 -224.5t-92.5 -223t-223.5 -92t-224 92t-93 223z" />
<glyph unicode="&#x2026;" horiz-adv-x="1570" d="M123 0v283h278v-283h-278zM647 0v283h277v-283h-277zM1169 0v283h279v-283h-279z" />
<glyph unicode="&#x202f;" horiz-adv-x="370" />
<glyph unicode="&#x2039;" horiz-adv-x="614" d="M41 700l264 428h268l-264 -428l264 -428h-268z" />
<glyph unicode="&#x203a;" horiz-adv-x="614" d="M41 272l264 428l-264 428h268l264 -428l-264 -428h-268z" />
<glyph unicode="&#x205f;" horiz-adv-x="463" />
<glyph unicode="&#x2122;" horiz-adv-x="1212" d="M72 1264v139h372v-139h-116v-564h-140v564h-116zM573 700v721l258 -303l259 303v-721h-140v328l-119 -139l-118 139v-328h-140z" />
<glyph unicode="&#x25fc;" horiz-adv-x="1402" d="M0 0v1403h1403v-1403h-1403z" />
</font>
</defs>
</svg>
